<svg xmlns="http://www.w3.org/2000/svg" viewBox="0 0 256 256" width="256" height="256">
  <!-- 背景 -->
  <rect width="256" height="256" rx="32" fill="#2C2C32" />

  <!-- 抽象几何形状 -->
  <circle cx="128" cy="85" r="45" fill="#1E1E1E" stroke="#4EC9B0" stroke-width="4" />
  <polygon points="128,148 178,178 128,208 78,178" fill="#1E1E1E" stroke="#007ACC" stroke-width="4" />

  <!-- 注入流动线 -->
  <path d="M128,130 L128,148" stroke="#FFFFFF" stroke-width="6" stroke-linecap="round" />

  <!-- 点缀元素表示环境变量 -->
  <circle cx="110" cy="75" r="6" fill="#569CD6" />
  <circle cx="142" cy="68" r="6" fill="#D7BA7D" />
  <circle cx="128" cy="95" r="6" fill="#CE9178" />
  <circle cx="155" cy="90" r="6" fill="#9CDCFE" />
  <circle cx="100" cy="90" r="6" fill="#4EC9B0" />

  <!-- 抽象流动效果 -->
  <path d="M110,81 Q120,120 100,140" stroke="#569CD6" stroke-width="2" fill="none" stroke-dasharray="2,2" />
  <path d="M142,74 Q160,110 155,145" stroke="#D7BA7D" stroke-width="2" fill="none" stroke-dasharray="2,2" />
  <path d="M128,101 L128,120" stroke="#CE9178" stroke-width="2" fill="none" stroke-dasharray="2,2" />
  <path d="M155,96 Q140,130 160,160" stroke="#9CDCFE" stroke-width="2" fill="none" stroke-dasharray="2,2" />
  <path d="M100,96 Q90,120 95,160" stroke="#4EC9B0" stroke-width="2" fill="none" stroke-dasharray="2,2" />
</svg>